<svg xmlns="http://www.w3.org/2000/svg" width="35.446" height="25.944" viewBox="0 0 35.446 25.944"><defs><style>.a{fill:#d81e05;}</style></defs><g transform="translate(0 -56.4)"><g transform="translate(0 56.4)"><path class="a" d="M34.84,68.833h-3a9.5,9.5,0,0,0,.64-6.671A8.02,8.02,0,0,0,24.9,56.4a9.479,9.479,0,0,0-3.268.606,16.952,16.952,0,0,0-3.774,1.887,16.177,16.177,0,0,0-3.774-1.887,9.623,9.623,0,0,0-3.268-.606,8.02,8.02,0,0,0-7.581,5.762,9.779,9.779,0,0,0,.943,7.278H.539a.539.539,0,1,0,0,1.078H4.818a7.113,7.113,0,0,0,.606.91c3.5,5.054,11.119,10.546,12.5,10.883v.034a.1.1,0,0,0,.067-.034h.1v-.034c1.179-.573,8.491-5.29,12.332-10.883a12.4,12.4,0,0,0,.943-1.516h3.538a.532.532,0,0,0,.539-.539A.566.566,0,0,0,34.84,68.833Zm-5.391,1.988c-3.572,5.223-10.142,9.434-11.557,10.344C16.443,80.255,9.906,76.01,6.3,70.821l-.2-.3h4.953a.556.556,0,0,0,.505-.3l2.258-4.448,3.538,9.064a.552.552,0,0,0,.505.337h.034a.537.537,0,0,0,.505-.4L21.5,64.15l1.651,5.357a.549.549,0,0,0,.438.371.583.583,0,0,0,.539-.236l1.314-1.921,1.112,1.887a.538.538,0,0,0,.472.27h3.032C29.853,70.215,29.651,70.518,29.449,70.821Zm1.213-1.988h-3.3l-1.381-2.359a.538.538,0,0,0-.472-.27.51.51,0,0,0-.472.236l-1.146,1.685-1.853-6.031a.625.625,0,0,0-.539-.4.577.577,0,0,0-.539.4L17.824,72.91l-3.4-8.693a.507.507,0,0,0-.472-.337.523.523,0,0,0-.505.3l-2.662,5.223H5.425a9.092,9.092,0,0,1-1.112-6.941,6.884,6.884,0,0,1,6.537-4.953,8.963,8.963,0,0,1,2.9.539,16.38,16.38,0,0,1,3.807,1.954.512.512,0,0,0,.674,0,14.69,14.69,0,0,1,3.807-1.954,8.146,8.146,0,0,1,2.9-.539,6.917,6.917,0,0,1,6.537,4.953A8.858,8.858,0,0,1,30.662,68.833Z" transform="translate(0 -56.4)"/></g></g></svg>