<svg xmlns="http://www.w3.org/2000/svg" width="28.446" height="28.446" viewBox="0 0 28.446 28.446"><defs><style>.a{fill:#d81e05;}</style></defs><path class="a" d="M26.6,0,6.733,1.592A7.316,7.316,0,0,0,0,8.885v2.353l.281.267a4.747,4.747,0,0,1,1.5,3.452v6.378H3.556V14.956a6.538,6.538,0,0,0-1.778-4.472v-1.6a5.537,5.537,0,0,1,5.1-5.52L26.668,1.778h1.778V0Z"/><path class="a" d="M160,192v1.778h1.778v3.37a8.047,8.047,0,0,1-.8,3.483A9.817,9.817,0,0,0,160,204.89v4.889h1.778V204.89a8.047,8.047,0,0,1,.8-3.483,9.817,9.817,0,0,0,.978-4.259v-3.37h16V192H160Z" transform="translate(-151.111 -181.333)"/><rect class="a" width="2" height="1" transform="translate(2 23.446)"/><rect class="a" width="2" height="2" transform="translate(2 26.446)"/></svg>