<svg xmlns="http://www.w3.org/2000/svg" width="193.509" height="54.504" viewBox="0 0 193.509 54.504">
  <g id="Group_34" data-name="Group 34" transform="translate(-21.713 -24.309)">
    <path id="Path_10" data-name="Path 10" d="M215.222,51.161c0,1.992-1.333,3.607-2.976,3.607H24.69c-1.644,0-2.976-1.615-2.976-3.607h0c0-1.994,1.333-3.609,2.976-3.609H212.245c1.644,0,2.976,1.615,2.976,3.609Z" transform="translate(0.001 24.044)" fill="#131313" opacity="0.1"/>
    <path id="Path_11" data-name="Path 11" d="M70.4,52.722,37.114,60.171,32.021,30.022l35.806-1.785Z" transform="translate(10.663 4.063)" fill="#b53d15"/>
    <path id="Path_12" data-name="Path 12" d="M57.386,52.723l-8.657.751-.517-2.911-1.471-8.3-.374-2.108-.981-5.522L54,28.238A52.8,52.8,0,0,1,57.386,52.723Z" transform="translate(24.49 4.064)" fill="#e94e1b"/>
    <path id="Path_13" data-name="Path 13" d="M38.382,38.407a1.156,1.156,0,0,1-1.2,1.076l-2.273.13a1.154,1.154,0,0,1-1.318-.932h0a1.157,1.157,0,0,1,1.2-1.076l2.275-.13a1.158,1.158,0,0,1,1.318.932Z" transform="translate(12.281 13.617)" fill="#d4a779"/>
    <path id="Path_14" data-name="Path 14" d="M40.918,39.942a83.369,83.369,0,0,1-8.276,3.235c1.636.85,4.571,2.614,7.509,4.281l.024.008c.9.515,1.792,1.009,2.653,1.471.252.138.5.271.753.4l-.753,2.2-.7,2.045-.675,1.973c-6.748-2.087-13.118-3.772-17.922-6.612-2.667-1.573-1.973-4.394-.637-6.205a59.47,59.47,0,0,1,4.614-5.546,75.211,75.211,0,0,1,10.471-8.942l.1.11,7.9,8.675c-.456.313-.913.612-1.365.893A37.376,37.376,0,0,1,40.918,39.942Z" transform="translate(0 4.079)" fill="#e94e1b"/>
    <path id="Path_15" data-name="Path 15" d="M70.172,32.3V44.749a33.274,33.274,0,0,1-5.265,1.294c-.651.108-1.312.21-1.994.285-9.013,1.1-20.265-.067-30.314-2.307-.671-.153-1.333-.3-1.988-.462L30.5,42.1l-.739-9.66-.008-.138C39.813,23.513,59.194,19.926,70.172,32.3Z" transform="translate(8.319)" fill="#e94e1b"/>
    <g id="Group_32" data-name="Group 32" transform="translate(36.019 50.658)">
      <path id="Path_16" data-name="Path 16" d="M121.209,60.622,118.151,61c-.857.1-1.65.175-2.374.224a26.17,26.17,0,0,1-3.752.014c-1.259-.1-1.941-.319-2.03-.519a7.971,7.971,0,0,1-.572-2.026,14.7,14.7,0,0,1,1.988-10.036c.1-.138.187-.275.277-.417,1.906-3.074,2.726-7.658,3.587-8.885,1.294-1.841,4.533-1.5,4.533-1.5l.047.671,1.027,14.53L119.4,55.9l1.6.562.037.789Z" transform="translate(54.536 -36.672)" fill="#2e2e2d"/>
      <path id="Path_17" data-name="Path 17" d="M87.778,56.585c-5.43,4.358-14.941,3.8-19.619.079-1.027-6.441-1.3-12.382,0-17.287,7.34-.352,17.718,1.674,23.226,2.535Z" transform="translate(11.124 -35.112)" fill="#575756"/>
      <path id="Path_18" data-name="Path 18" d="M121.92,53.4l-1.746,2.7,1.542.712-.2,4.158-3.082.075c-1.28.028-2.411.01-3.387-.047a19.647,19.647,0,0,1-3.538-.472c-.726-.185-1.113-.385-1.17-.541a7.323,7.323,0,0,1-.332-1.642,14.733,14.733,0,0,1,2.905-10.229c2.393-2.84,3.719-7.7,4.742-8.885a3.145,3.145,0,0,1,1.469-.928,7.275,7.275,0,0,1,3.186-.134Z" transform="translate(55.261 -36.446)" fill="#3c3c3b"/>
      <g id="Group_31" data-name="Group 31" transform="translate(0 2.727)">
        <path id="Path_19" data-name="Path 19" d="M48.8,41.532V53.82l-10.51.335-.243-11.137Z" transform="translate(-19.123 -35.567)" fill="#f0b87d"/>
        <g id="Group_30" data-name="Group 30">
          <path id="Path_20" data-name="Path 20" d="M50.66,38.86a2.6,2.6,0,0,1,1.817,1.87l.492,2.167a6.4,6.4,0,0,1-.2,2.48l0,.006a8.2,8.2,0,0,1-5.882,5.926.816.816,0,0,1,.024.114.042.042,0,0,0,.008.033c.342,1.6,2.549,3.689,1.052,4.246-1.656.618-3.66,3.135-5.849,3.918C32.083,61.966,31,55.647,30.016,51.95a8.769,8.769,0,0,1,2.635-8.634,11.171,11.171,0,0,1,2.879-1.87,16.344,16.344,0,0,1,1.923-.728,12.508,12.508,0,0,1,1.316.173l.462-.37,2.053-1.646a1.1,1.1,0,0,1,1.628.391l.517.881c.667-.163,4.333-1.4,4.333-1.4A5.384,5.384,0,0,1,50.66,38.86Z" transform="translate(-27.676 -38.6)" fill="#f0b87d"/>
          <path id="Path_21" data-name="Path 21" d="M52.225,54.828c-.2,1.284-1.345,2.065-2.891,2.545-.262.085-.543.157-.828.224a45.351,45.351,0,0,1-8.181.618c-.37.014-.728.028-1.074.033-5.2.11-7.338-.885-8.7-3.638A20.673,20.673,0,0,1,29.3,50.963c-1.141-4.295-.4-7.934,1.227-9.446a2.675,2.675,0,0,1,3.2-.427v0q.043.763.106,1.426c.779,8.156,4.222,5.674,12.351,3.9.342.97.342.97.647,2.059-.016.024-.035.049-.053.071-.586.761-2.378,2.688-2.492,2.812a10.929,10.929,0,0,1,3.534-.924c.051,0,.1,0,.153,0a3.6,3.6,0,0,1,.513,0,3.774,3.774,0,0,1,2.321.814l0,0A4.653,4.653,0,0,1,52.225,54.828Z" transform="translate(-28.745 -36.378)" fill="#3c3c3b"/>
          <path id="Path_22" data-name="Path 22" d="M38.5,48.414c1.56-.423,3-2.226,2.728-3.245s-1.51-.566-3.074-.161c-1.034.271-2.572.4-2.594,1.613C35.54,47.677,36.213,49.032,38.5,48.414Z" transform="translate(-21.695 -32.448)" fill="#f0b87d"/>
        </g>
        <path id="Path_23" data-name="Path 23" d="M41.984,38.728A2.6,2.6,0,0,1,43.8,40.6l.492,2.167a6.4,6.4,0,0,1-.2,2.48l0,.006a7.086,7.086,0,0,1-2.675,1.872,21.648,21.648,0,0,1-3.255,1,5.288,5.288,0,0,0,2.35-1.837,9.245,9.245,0,0,0,1.335-2.7,8.839,8.839,0,0,0,.515-2.952A5.272,5.272,0,0,0,41.984,38.728Z" transform="translate(-19 -38.468)" fill="#050504" opacity="0.1"/>
      </g>
      <path id="Path_24" data-name="Path 24" d="M97.712,55.778c-.366,1.223-.781,2.46-1.227,3.691-.031.092-.063.181-.1.273-.242.661-.494,1.326-.753,1.988-.136,0-.342-.006-.6-.006-2.325-.012-9.247.02-17.313.067-.531,0-1.068,0-1.611.01l-7.782.057c-.94,0-1.882.01-2.814.018-10.15.081-15.373,1.042-20.7-1.821l-.006,0q-.7-.372-1.408-.842l-.362-.11L40.8,58.4c.246-.995.466-2,.665-3V55.4c.576-2.877.993-5.688,1.516-7.9.1-.413.2-.808.309-1.174.035-.13.071-.248.11-.366.338-.7,2.26-1.737,2.26-1.737a21.454,21.454,0,0,1,7.09-4.142,30.006,30.006,0,0,1,8.028-1.8q.8-.079,1.642-.106c1.131-.047,2.325-.039,3.571.033,5.831-1.32,24.674-1.935,33.156,2.873.171.1.332.2.494.295,0,.057.014.114.018.171C100.137,45.677,99.276,50.647,97.712,55.778Z" transform="translate(-16.273 -37.26)" fill="#006080"/>
      <path id="Path_25" data-name="Path 25" d="M75.807,46.386l-1.119,7.263-.267,1.735-.022.153-.881-.01H73.5l-8.476-.075-14.105-.134c-4.348-.765-6-2.887-6.6-4.661a5.949,5.949,0,0,1-.275-2.728c.975-4.567,6.443-4.81,9.468-4.272,5.418.956,19.789,2.47,22,2.7h.01c.11.01.185.02.232.024A.2.2,0,0,1,75.807,46.386Z" transform="translate(-12.969 -30.855)" fill="#00475e"/>
      <path id="Path_26" data-name="Path 26" d="M112.05,41.282l-.985,12.65-.36,4.667c-.348,0-.686.012-1.027.018-7.481.157-13.792.5-20.866.018a93.9,93.9,0,0,1-10.276-1.27q-1.587-.278-3.263-.629l-.049-.346-.313-2.36-1.7-12.75c3.534-.37,6.811-.614,9.865-.761C95.656,39.921,104.452,40.948,112.05,41.282Z" transform="translate(17.252 -34.078)" fill="#575756"/>
      <path id="Path_27" data-name="Path 27" d="M132.385,45.263l-1.137,10.048-.267,2.364-.057.486h-.157c-19.338.142-27.148.289-39.636,0l0-.024.637-4.651L93.508,40.8a298.521,298.521,0,0,0,36.922,4.362C131.081,45.2,131.734,45.228,132.385,45.263Z" transform="translate(35.794 -33.597)" fill="#575756"/>
      <path id="Path_28" data-name="Path 28" d="M82.592,47c-.1-.757-.983-.741-1.487-.582-.885.277-2.435.5-4.13.8-.366.151-.716.2-1.088.334a7.6,7.6,0,0,0-1.023.423c-.258.321-.427.584-.718,1.009a21,21,0,0,0,6.651-.743C81.317,48.04,82.684,47.678,82.592,47Z" transform="translate(18.221 -27.875)" fill="#ffc990"/>
      <path id="Path_29" data-name="Path 29" d="M89.581,51.566v.01a.572.572,0,0,1-.5.57.463.463,0,0,1-.094.006l-8.319-.024H72.953v-.01l.173-2.458.132-1.923c0,.057.128.071.352.057a15.839,15.839,0,0,0,1.565-.252c1.6-.313,3.776-.812,4.714-.918a2.033,2.033,0,0,1,.224-.014,1.882,1.882,0,0,1,.69.134l1.536.6.647.252,2.091.814a2.029,2.029,0,0,1,.4.21l2.443,1.569,1.394.9A.571.571,0,0,1,89.581,51.566Z" transform="translate(16.988 -27.588)" fill="#ffc990"/>
      <path id="Path_30" data-name="Path 30" d="M73.213,54.327c-.228,1.27-.456,2.417-.665,3.335-.124.537-.242,1-.352,1.355-.167.551-.315.867-.423.867H67.443c.01-.035.024-.067.035-.1.232-.641.448-1.292.647-1.959.075-.232.146-.466.21-.7.332-1.119.623-2.264.889-3.434,1.027-4.472,1.664-9.265,2.307-14.111l.057-.444,3.282.244c.071.008.118.157.142.423C75.164,41.634,74.179,49.044,73.213,54.327Z" transform="translate(11.288 -35.32)" fill="#005673"/>
      <path id="Path_31" data-name="Path 31" d="M89.182,49.37l-.024.214-.2,1.851L88.688,53.9v.018l-.006.024H63.975a26.651,26.651,0,0,1-4.866.108h-.014c-.167-.014-.338-.033-.513-.057a.35.35,0,0,1-.181-.075c-.313-.214-.47-.889-.476-1.774-.037-2.659,1.2-7.249,3.182-7.263h.01c.11.01.185.02.232.024a.2.2,0,0,1,.049,0l15.971,2.563,1.7.277L80,47.9l3.062.49Z" transform="translate(1.44 -29.377)" fill="#00475e"/>
    </g>
    <path id="Path_32" data-name="Path 32" d="M40.235,40.823c1.361.948.934,2.631-.918,1.713a1.34,1.34,0,0,1,.6,1.347c-.153.527-.861.779-1.788.246,1.223,1.318-.21,2.325-1.5.918L32.559,43.92l-1.369.529a9.431,9.431,0,0,1,.59-2.83,8.336,8.336,0,0,1,2.382-3.448,2.728,2.728,0,0,1,2.222-.629A10.167,10.167,0,0,1,40.679,38.9C42.148,40.062,41.6,41.433,40.235,40.823Z" transform="translate(9.803 13.651)" fill="#ffc990"/>
    <path id="Path_33" data-name="Path 33" d="M48.693,51.987c-.942.58-3.125,1.113-6.673,1.77a2.043,2.043,0,0,1-.409.033A3.439,3.439,0,0,1,39.09,52.6a4.941,4.941,0,0,1-.527-.653,2.72,2.72,0,0,1-.163-.267c-.138-.25-.271-.537-.391-.769-.374-.714-.057-1.276.48-1.265a1.206,1.206,0,0,1,.714.3,2.538,2.538,0,0,1,.305.305c-.063-.12-.12-.224-.163-.309a5.6,5.6,0,0,1-.551-1.027.192.192,0,0,1-.018-.043.9.9,0,0,1,1.365-1.017,3.22,3.22,0,0,1,.95,1.031,9.437,9.437,0,0,0-.4-.875c-.718-1.19.033-1.813.69-1.756l0,0a.781.781,0,0,1,.509.22,6.441,6.441,0,0,1,.977,1.3c-1.141-2.275.58-2.765,1.337-1.585.065.1.179.319.313.594V46.8c.462.907,1.184,2.478,1.426,2.934l.033.057a2.313,2.313,0,0,0,.376.48,9.252,9.252,0,0,0,1.508,1.176l.006,0C48.156,51.639,48.437,51.82,48.693,51.987Z" transform="translate(16.69 22.002)" fill="#ffc990"/>
    <path id="Path_34" data-name="Path 34" d="M204.8,47.555l-.2,4.158-3.082.075c-1.28.028-2.411.01-3.387-.047a26.17,26.17,0,0,1-3.752.014c-19.338.142-27.148.289-39.636,0l0-.024c-7.481.157-13.792.5-20.866.018a.463.463,0,0,1-.094.006l-8.319-.024h-7.524l-.006.024H93.241a26.651,26.651,0,0,1-4.866.108H88.36l-8.476-.075c-.94,0-1.882.01-2.814.018-10.15.081-15.373,1.042-20.7-1.821.285.189.566.37.822.537-.942.58-3.125,1.113-6.673,1.77a2.043,2.043,0,0,1-.409.033,3.439,3.439,0,0,1-2.521-1.188,45.351,45.351,0,0,1-8.181.618c-.37.014-.728.028-1.074.033-5.2.11-7.338-.885-8.7-3.638q1.392.433,2.769.722a20.249,20.249,0,0,0,10.758-.366l1.754.8,1.984.907,1.518.7.871.4c2.315.234,3.87-1.074,5.306-2.283.092-.075.177-.146.262-.224h0c2.431.551,3.786-.157,4.319-1.813,7.961,1.98,17.478,2.787,28.013,2.964.781.014,1.565.024,2.354.028,5.652.043,11.576-.077,17.694-.291.232,0,.466-.014.7-.022.167-.006.338-.01.509-.02,1.066-.037,2.134-.075,3.21-.118q3.11-.128,6.278-.271l.285-.014c.686.1,1.379.185,2.077.256,1.508.167,3.054.275,4.643.338h0c2.478.1,5.062.075,7.786-.053a201.669,201.669,0,0,0,22.658-2.71l.509-.087c.081.02.163.039.242.053a109.366,109.366,0,0,0,35.642,2.165c.433-.039.871-.075,1.314-.124q.876-.079,1.768-.181c2.755-.3,5.589-.68,8.537-1.131C203.866,47.7,204.332,47.632,204.8,47.555Z" transform="translate(8.193 23.466)" fill="#1d1d1b" opacity="0.1"/>
    <path id="Path_35" data-name="Path 35" d="M40.993,49.474a2.763,2.763,0,0,0-3.2.423c-6.748-2.087-9.46-2.659-14.264-5.5C20.866,42.826,21.56,40,22.9,38.193a59.47,59.47,0,0,1,4.614-5.546L25.163,38.3a4,4,0,0,0,1.9,5.111l9.094,4.567,4.993-.039Z" transform="translate(0 8.625)" fill="#1d1d1b" opacity="0.1"/>
    <path id="Path_36" data-name="Path 36" d="M69.984,44.434l-1.809.612L66.91,37.9C57.9,39.006,46.645,37.836,36.6,35.6a83.369,83.369,0,0,1-8.276,3.235c1.636.85,4.571,2.614,7.509,4.281l-9.938-4.028,7.265-4.856,1.343-.551,2.954-1.223c.946.4,1.892.779,2.838,1.131,8.608,3.231,17.269,4.4,26.025,2.045l.22.167L68.9,37.619l.5.389.295,5.731Z" transform="translate(4.322 8.425)" fill="#1d1d1b" opacity="0.1"/>
    <path id="Path_37" data-name="Path 37" d="M54.113,39.106c-1.377,7.092-3.3,11.179-10.024,11.179-6.577,0-8.622-4.321-9.9-11.179-1.306-7.023,4.4-11.548,9.9-11.548S55.476,32.093,54.113,39.106Z" transform="translate(12.712 3.361)" fill="#ffc990"/>
    <path id="Path_38" data-name="Path 38" d="M38.991,40.127l-.985-1.67h3.88l-.793,1.558A1.116,1.116,0,0,1,38.991,40.127Z" transform="translate(16.854 14.636)" fill="#ffc990"/>
    <g id="Group_33" data-name="Group 33" transform="translate(45.659 41.069)">
      <path id="Path_39" data-name="Path 39" d="M36.585,36.854l-.73.244a1.393,1.393,0,0,1-1.79-.96l-.537-2a1.266,1.266,0,0,1,1.223-1.6h1.835Z" transform="translate(-33.483 -32.547)" fill="#ffc990"/>
      <path id="Path_40" data-name="Path 40" d="M42.981,36.854l.73.244a1.394,1.394,0,0,0,1.79-.96l.535-2a1.265,1.265,0,0,0-1.221-1.6H42.981Z" transform="translate(-23.658 -32.547)" fill="#ffc990"/>
    </g>
    <path id="Path_41" data-name="Path 41" d="M54.222,39.374c-.781,5.764-4.012,9.637-10.054,9.637s-9.249-3.939-10.042-9.637c-1.046-7.505,4-12.191,10.042-12.191S55.178,32.3,54.222,39.374Z" transform="translate(12.697 2.973)" fill="#3c3c3b"/>
  </g>
</svg>
