<svg xmlns="http://www.w3.org/2000/svg" width="23.025" height="33.258" viewBox="0 0 23.025 33.258"><defs><style>.a{fill:#f4f3f4;}</style></defs><g transform="translate(0)"><path class="a" d="M152.575,23.024a6.413,6.413,0,0,0,6.4-6.4V6.4a6.158,6.158,0,0,0-1.878-4.517,6.369,6.369,0,0,0-9.034,0A6.158,6.158,0,0,0,146.179,6.4V16.629a6.414,6.414,0,0,0,6.4,6.4Z" transform="translate(-141.062)"/><path class="a" d="M95.732,183.1a1.279,1.279,0,0,0-2.178.9v2.558a8.954,8.954,0,0,1-17.908,0V184a1.279,1.279,0,0,0-2.558,0v2.558A11.511,11.511,0,0,0,83.32,197.993v2.639H78.2a1.279,1.279,0,0,0,0,2.559H90.995a1.279,1.279,0,0,0,0-2.559H85.879v-2.639a11.512,11.512,0,0,0,10.233-11.432V184A1.229,1.229,0,0,0,95.732,183.1Z" transform="translate(-73.087 -169.932)"/></g></svg>