<svg xmlns="http://www.w3.org/2000/svg" width="23.708" height="18.733" viewBox="0 0 23.708 18.733"><defs><style>.a{fill:#424242;}</style></defs><g transform="translate(0 -6.295)"><path class="a" d="M11.223,7.515A1.2,1.2,0,0,0,10,7.532a.367.367,0,0,0-.051.037L4.6,12.1H.4a.4.4,0,0,0-.4.4V20a.4.4,0,0,0,.4.4l4.192,0,5.351,4.915a.386.386,0,0,0,.064.047,1.2,1.2,0,0,0,1.221.017,1.234,1.234,0,0,0,.631-1.089V8.6A1.235,1.235,0,0,0,11.223,7.515Zm-.16,16.77a.453.453,0,0,1-.229.4.414.414,0,0,1-.4.01l-5.3-4.872v-1.8a.4.4,0,1,0-.79,0V19.6l-3.556,0V12.888H4.346v1.581a.4.4,0,1,0,.79,0V12.676l5.3-4.481a.413.413,0,0,1,.4.007.453.453,0,0,1,.229.4Z" transform="translate(0 -0.641)"/><path class="a" d="M43.224,18.668A7.7,7.7,0,0,0,38,11.379a.4.4,0,0,0-.254.749,6.908,6.908,0,0,1,.009,13.082.4.4,0,0,0,.128.769.39.39,0,0,0,.128-.021A7.7,7.7,0,0,0,43.224,18.668Z" transform="translate(-22.667 -3.062)"/><path class="a" d="M43.179,6.326a.4.4,0,1,0-.309.728,9.287,9.287,0,0,1-.271,17.21.4.4,0,0,0,.286.737,10.078,10.078,0,0,0,.294-18.675Z" transform="translate(-25.614)"/><path class="a" d="M36.356,21.994A5.358,5.358,0,0,0,32.5,16.873a.4.4,0,0,0-.219.759,4.54,4.54,0,0,1,0,8.724.4.4,0,0,0,.109.775.4.4,0,0,0,.109-.015A5.358,5.358,0,0,0,36.356,21.994Z" transform="translate(-19.356 -6.389)"/></g></svg>