<svg xmlns="http://www.w3.org/2000/svg" width="232" height="137.47" viewBox="0 0 232 137.47">
  <g id="Group_54" data-name="Group 54" transform="translate(-295.754 -212.992)">
    <path id="Path_66" data-name="Path 66" d="M322.458,253.278c.132-.973,1.264-.951,1.91-.748,1.137.355,3.13.646,5.3,1.034.472.191.919.254,1.4.425a10.074,10.074,0,0,1,1.316.543c.333.413.548.751.922,1.3a26.853,26.853,0,0,1-8.539-.954C324.1,254.608,322.343,254.143,322.458,253.278Z" transform="translate(38.588 56.981)" fill="#f2bf89"/>
    <path id="Path_67" data-name="Path 67" d="M318.861,258.764v.012a.738.738,0,0,0,.646.734.983.983,0,0,0,.122,0l10.784-1.5,4.468.614c3.025,0,6.216-1.707,6.008-4.724l0-.056c0,.073-.164.091-.452.073a19.962,19.962,0,0,1-2.008-.325c-2.059-.4-4.849-1.044-6.052-1.176a2.288,2.288,0,0,0-.288-.02,2.455,2.455,0,0,0-.885.171l-1.971.77-.831.323-2.687,1.044a2.479,2.479,0,0,0-.511.269l-4.206,2.015-1.79,1.147A.741.741,0,0,0,318.861,258.764Z" transform="translate(33.396 56.958)" fill="#f2bf89"/>
    <g id="Group_50" data-name="Group 50" transform="translate(355.568 212.992)">
      <g id="Group_47" data-name="Group 47" transform="translate(10.899 31.803)">
        <path id="Path_68" data-name="Path 68" d="M333.186,246.365c2.739-11.2,17.088-6.456,12.136,3.991L332.3,273.992l-7.627-1.567Z" transform="translate(-324.672 -205.87)" fill="#f2bf89"/>
        <path id="Path_69" data-name="Path 69" d="M348.1,235.76,344.785,251l-3.947,16.024-11.855-5.661,2.159-12.808,2.949-15.444C336.026,222.962,350.153,223.524,348.1,235.76Z" transform="translate(-318.44 -225.998)" fill="#d99651"/>
        <path id="Path_70" data-name="Path 70" d="M339.5,251.853c1.157.665,2.306-1.083,3-3.1.487-2.377,1.333-3.883.516-4.243l-12.4-4.932c-1.157-.521-3.132,4.683-2.269,4.888Z" transform="translate(-319.671 -206.426)" fill="#c48849"/>
      </g>
      <path id="Path_71" data-name="Path 71" d="M358.128,262.906l-2.467,8.37.9,1.875a5.312,5.312,0,0,1,1.506-.042c.164.02.325.037.487.071a13.385,13.385,0,0,1,4.247,1.9c1.02.6,2.3,2.414,3.915,4.042.328.32.646.641.934.946,1.729,1.8,3.035,3.357,4.4,3.776,1.127.567,2.435-.247,4.186-.9a.629.629,0,0,0,.469-.6,22.771,22.771,0,0,0-2.8-10.077l-1.5-2.6-1.775-3.074-2.069-3.57c-.064-.105-.117-.213-.181-.31l-.638-1.264-.188-.352-1.33-2.553a7.7,7.7,0,0,0-.966-1.426l-1.306-1.5a.557.557,0,0,0-.4-.2,21.043,21.043,0,0,0-3.67,2.22c-1.741,1.181-3.519,2.467-3.864,2.81l-.049.046c-.2.176-.663.954-1.435,1.77-.528.558,4.776.054,3.961.472A3.433,3.433,0,0,1,358.128,262.906Z" transform="translate(-270.669 -151.666)" fill="#61483e"/>
      <path id="Path_72" data-name="Path 72" d="M337.637,295.6a10.657,10.657,0,0,0,.589,1.289.418.418,0,0,1,.046.078,8.423,8.423,0,0,0,1.037,1.487c.056.064.1.13.159.193a9.184,9.184,0,0,0,4.125,2.638c4.578,1.565,7.827-.76,9.517-5.12.13-.325.245-.66.352-1.005.176-.367,2.269-5.145,4.854-12.217v-.007c2.035-5.6,4.377-12.652,6.306-20.113.372-1.435.731-2.89,1.066-4.355.269-1.171.523-2.355.768-3.538.083-.56.149-1.083.193-1.6v-.007a17.815,17.815,0,0,0,.083-2.149,12.507,12.507,0,0,0-.313-2.69,8.115,8.115,0,0,0-.6-1.707,5.787,5.787,0,0,0-1.986-2.325c-5.945-4.025-19.007,3.3-19.007,3.3-.445,2.5-.841,4.722-1.186,6.7-.066.335-.122.663-.176.981-.242,1.323-.452,2.546-.658,3.67-2.333,13.236-2.345,13.593-4.766,27.365-.164.966-.347,2.005-.543,3.113A9.652,9.652,0,0,0,337.637,295.6Z" transform="translate(-295.835 -169.263)" fill="#785039"/>
      <path id="Path_73" data-name="Path 73" d="M337.9,278.258a.49.49,0,0,1,.056.073c.174.2.682.8,1.218,1.338.064.059.12.117.183.174a6.581,6.581,0,0,0,.672.584,9.294,9.294,0,0,0,6.6,1.729c23.169-4.091,29.493-3.453,35.648-4.575l.413-4.827.237-2.815-.171-13.293s-13.586,2.264-26.732,5.184v.007c-8.006,1.775-14.733,3.732-16.589,5.492-.049.049-.364,2.093-.7,4.4C338.3,274.724,337.845,278.174,337.9,278.258Z" transform="translate(-294.661 -149.899)" fill="#785039"/>
      <path id="Path_74" data-name="Path 74" d="M363.362,262.906l-2.465,8.37.9,1.875a5.309,5.309,0,0,1,1.506-.042c.161.02.323.037.484.071a13.384,13.384,0,0,1,4.247,1.9c1.02.6,2.306,2.414,3.917,4.042.328.32.646.641.932.946,1.731,1.8,3.037,3.357,4.406,3.776,1.125.567,2.433-.247,4.184-.9a.631.631,0,0,0,.472-.6,22.771,22.771,0,0,0-2.8-10.077l-1.5-2.6-1.778-3.074-2.066-3.57c-.064-.105-.12-.213-.183-.31l-.636-1.264-.188-.352-1.33-2.553a7.593,7.593,0,0,0-.968-1.426l-1.306-1.5a.552.552,0,0,0-.4-.2,20.95,20.95,0,0,0-3.67,2.22c-1.743,1.181-3.519,2.467-3.864,2.81l-.051.046c-.2.176-.66.954-1.435,1.77-.526.558,4.778.054,3.961.472A3.438,3.438,0,0,1,363.362,262.906Z" transform="translate(-263.103 -151.666)" fill="#61483e"/>
      <path id="Path_75" data-name="Path 75" d="M343.385,297.382a9.665,9.665,0,0,0,.751,1.2.49.49,0,0,1,.056.073A8.238,8.238,0,0,0,345.409,300c.064.059.12.117.183.174a9.186,9.186,0,0,0,4.431,2.083c4.741.963,7.666-1.763,8.779-6.306.086-.34.156-.687.218-1.042.127-.386,1.587-5.394,3.238-12.74v-.007c1.294-5.82,2.707-13.112,3.658-20.758.183-1.472.352-2.961.5-4.455.115-1.2.213-2.4.3-3.609.01-.565.01-1.093-.015-1.611v-.007a18,18,0,0,0-.2-2.142,12.419,12.419,0,0,0-.655-2.624,8.311,8.311,0,0,0-.819-1.616,5.764,5.764,0,0,0-2.269-2.052c-6.414-3.223-18.423,5.724-18.423,5.724-.117,2.533-.225,4.79-.313,6.8-.02.34-.034.672-.047,1-.068,1.343-.12,2.582-.176,3.722-.609,13.427-.572,13.784-1.2,27.754-.039.981-.088,2.032-.137,3.157A9.609,9.609,0,0,0,343.385,297.382Z" transform="translate(-288.236 -170.226)" fill="#8f6044"/>
      <path id="Path_76" data-name="Path 76" d="M343.078,278.258a.49.49,0,0,1,.056.073c.174.2.685.8,1.218,1.338.064.059.12.117.183.174a6.581,6.581,0,0,0,.672.584,9.3,9.3,0,0,0,6.6,1.729c23.167-4.091,32.728-4.206,38.885-5.328l-2.617-20.181s-13.728,2.264-26.876,5.184v.007c-8.006,1.775-14.733,3.732-16.589,5.492-.049.049-.364,2.093-.7,4.4C343.479,274.724,343.022,278.174,343.078,278.258Z" transform="translate(-287.178 -149.899)" fill="#8f6044"/>
      <path id="Path_77" data-name="Path 77" d="M340.972,235.737a10.4,10.4,0,0,1-4.893,3.768l-9.923-13.518c.885-.606,5.162-4.883,8.307-8.123l7.649,8.1,1.069,1.122a.646.646,0,0,1,.2.029C344.706,227.371,342.728,233.467,340.972,235.737Z" transform="translate(-311.629 -205.95)" fill="#f0bd87"/>
      <g id="Group_48" data-name="Group 48">
        <path id="Path_78" data-name="Path 78" d="M345.179,227.476c.976,1.658-2.68,1.932-4.235,3.159a.777.777,0,0,1-.137.12c3.282,4.191,1.785,9.95-.516,12.307-.078.076-.152.147-.23.22l-2.115,1.648c-2.032,1.536-4.641-.076-5.94-1.746,0,0-.127-.208-.33-.528-.33-.523-.858-1.355-1.36-2.145l0-.007c-.43-.672-.844-1.306-1.1-1.685-.078-.115-.142-.2-.188-.262l-1.154.43a1.341,1.341,0,0,1-1.829-.878l-.658-3.11-.152-.7a12.618,12.618,0,0,1-1.357-.846,16.921,16.921,0,0,1-1.245-2.147,13.575,13.575,0,0,1-1.272-3.952,10.585,10.585,0,0,1,4.137-10.1c1.761-1.269,3.976-3.062,6.627-3.59.191-.037.377-.068.572-.09,2.866-.362,6.206.851,10,5.761C344.149,221.741,344.1,225.632,345.179,227.476Z" transform="translate(-318.748 -212.243)" fill="#ffc990"/>
        <path id="Path_79" data-name="Path 79" d="M348.113,230.718c-5.754,6.409-7.549-4.167-7.549-4.167s-1.609,1.181-1.665,2.267c-.8.7-1.345,1.066-2.008,1.643-6.595-8.3-6.037-11.187-14.068-2.355-6.348-2.343.494-10.3,3.6-12.478,5.465-3.832,12.2-3.531,16.278,1.193C345.074,219.568,346.551,220.993,348.113,230.718Z" transform="translate(-320.215 -212.992)" fill="#61483e"/>
        <path id="Path_80" data-name="Path 80" d="M331.821,219.375c1.137,1.589,1.11,4.382.073,5.125s-1.846-.626-3-2.2c-.763-1.042-2.1-2.345-1.2-3.492C328.486,217.8,330.151,217.047,331.821,219.375Z" transform="translate(-309.836 -205.984)" fill="#ffc990"/>
      </g>
      <path id="Path_81" data-name="Path 81" d="M377.183,280.769c-.088.061-.174.12-.262.188a38.328,38.328,0,0,1-3.859,2.44c-6.4,3.553-14.175,5.565-17.5,1.912-3.966-4.36-12.549-17.344-15.486-22.013a93.193,93.193,0,0,1-6.688-12.263v-.007a.555.555,0,0,1-.047-.093,35.483,35.483,0,0,1-3.152-14.576c-.012-1.43.061-2.308.061-2.308l.02.007c.863-.467,2.255-2.193,3.573-4.382a29.922,29.922,0,0,0,3.519-8.04.066.066,0,0,0,.032.007c.007,0,.042,0,.088,0,.362.042,1.479.154,2.027.254a26.116,26.116,0,0,1,9.219,3.734c.054.034.105.073.166.108,6.456,3.978,21.259,26.282,28.309,36.523.469.682,2.536,5.1,5.426,10.356C383.711,274.594,381.156,277.832,377.183,280.769Z" transform="translate(-305.802 -200.501)" fill="#e69f56"/>
      <path id="Path_82" data-name="Path 82" d="M335.639,229.145c-.215,4.993-8.571,5.551-8.615-.406,0-.619-.858-1.355-1.36-2.145l0-.007c-.594.259-1.543-1.23-1.1-1.685a1.716,1.716,0,0,1,.572-.474A9.473,9.473,0,0,1,327.7,223.3a4.685,4.685,0,0,1,2.768.093,7.036,7.036,0,0,1,2.739,2.259,19.529,19.529,0,0,1,2.24,3.093A2.112,2.112,0,0,1,335.639,229.145Z" transform="translate(-314.097 -198.326)" fill="#61483e"/>
      <path id="Path_83" data-name="Path 83" d="M330.256,225.512a1.8,1.8,0,0,1-.624,1.8,1.761,1.761,0,0,1-1.839.284c-.257-.183-.428-.709-.741-.668a3,3,0,0,0-.746.482c-.33-.523-.858-1.355-1.36-2.145l0-.007c.156-.1.323-.2.487-.281a8.132,8.132,0,0,1,1.856-.79,3.206,3.206,0,0,1,1.993.071A1.627,1.627,0,0,1,330.256,225.512Z" transform="translate(-313.379 -196.995)" fill="#ffc990"/>
      <path id="Path_84" data-name="Path 84" d="M371.5,270.309l-.423.269-3.859,2.44c-6.4,3.553-14.175,5.565-17.5,1.912-3.966-4.36-12.549-17.344-15.486-22.013l3.646-19.721,7.551-4.382-1.516,26.035c6.348,17.64,14.342,21.9,27.426,15.54Z" transform="translate(-299.958 -190.123)" fill="#1d1d1b" opacity="0.1"/>
      <g id="Group_49" data-name="Group 49" transform="translate(13.07 32.183)">
        <path id="Path_85" data-name="Path 85" d="M335.194,246.068c3.22-11.07,17.352-5.712,11.953,4.512l-14.034,23.049-7.553-1.9Z" transform="translate(-325.56 -206.246)" fill="#ffc990"/>
        <path id="Path_86" data-name="Path 86" d="M350.621,236.186l-3.966,15.08-4.636,15.841-11.6-6.172,2.709-12.7,3.617-15.305C339.115,222.874,353.205,224.05,350.621,236.186Z" transform="translate(-318.536 -226.153)" fill="#e69f56"/>
        <path id="Path_87" data-name="Path 87" d="M340.544,252.156c1.127.716,2.352-.983,3.137-2.971.587-2.352,1.5-3.82.7-4.216L332.2,239.506c-1.132-.572-3.333,4.543-2.48,4.785Z" transform="translate(-319.823 -206.918)" fill="#d1914e"/>
      </g>
    </g>
    <path id="Path_88" data-name="Path 88" d="M527.754,270.055c0,2.558-1.712,4.631-3.822,4.631H299.576c-2.11,0-3.822-2.074-3.822-4.631h0c0-2.56,1.712-4.634,3.822-4.634H523.932c2.11,0,3.822,2.074,3.822,4.634Z" transform="translate(0 75.776)" fill="#131313" opacity="0.1"/>
    <g id="Group_53" data-name="Group 53" transform="translate(297.664 314.314)">
      <path id="Path_89" data-name="Path 89" d="M397.89,284.3l-3.925.482c-1.1.13-2.12.227-3.049.289a33.216,33.216,0,0,1-4.817.017c-1.619-.127-2.492-.408-2.607-.665a10.327,10.327,0,0,1-.734-2.6c-.6-3.695-.073-9.087,2.553-12.884.122-.176.237-.354.354-.538,2.448-3.944,3.5-9.83,4.6-11.407,1.66-2.362,5.82-1.922,5.82-1.922l.061.861,1.318,18.655-1.9,3.658,2.059.719.049,1.015Z" transform="translate(-172.24 -253.55)" fill="#2e2e2d"/>
      <path id="Path_90" data-name="Path 90" d="M364.017,278.791c-6.969,5.6-19.183,4.883-25.187.1-1.32-8.268-1.668-15.894,0-22.194,9.424-.45,22.749,2.149,29.82,3.255Z" transform="translate(-237.031 -251.221)" fill="#006080"/>
      <path id="Path_91" data-name="Path 91" d="M398.654,274.981l-2.242,3.463,1.978.915-.249,5.338-3.957.1c-1.643.037-3.1.012-4.35-.061a25.351,25.351,0,0,1-4.541-.6c-.937-.24-1.431-.5-1.5-.7a9.553,9.553,0,0,1-.428-2.108c-.384-3.749.606-9.427,3.732-13.134,3.071-3.646,4.776-9.881,6.089-11.407a4.046,4.046,0,0,1,1.888-1.191,9.333,9.333,0,0,1,4.091-.171Z" transform="translate(-171.159 -253.213)" fill="#3c3c3b"/>
      <g id="Group_52" data-name="Group 52" transform="translate(0 3.499)">
        <path id="Path_92" data-name="Path 92" d="M320.277,258.99V274.77l-6.6.207h-.007l-1.345.047-5.539.174-.027-1.07v-.214l-.094-4.234-.007-.294-.054-2.449-.134-6.04,3.994-.549,3.994-.555,2.408-.334Z" transform="translate(-282.176 -251.332)" fill="#f0b87d"/>
        <g id="Group_51" data-name="Group 51">
          <path id="Path_93" data-name="Path 93" d="M324.45,256.193a3.34,3.34,0,0,1,2.333,2.4l.631,2.78a8.226,8.226,0,0,1-.249,3.184l0,.01a10.525,10.525,0,0,1-7.551,7.607c.015.051.022.1.032.149a.075.075,0,0,0,.007.042c.443,2.052,3.277,4.734,1.352,5.451-2.127.792-4.7,4.025-7.512,5.032-12.894,3.01-14.285-5.1-15.545-9.85a11.259,11.259,0,0,1,3.382-11.087,14.326,14.326,0,0,1,3.7-2.4,20.49,20.49,0,0,1,2.465-.937,16.073,16.073,0,0,1,1.692.223l.592-.474,2.636-2.113a1.417,1.417,0,0,1,2.091.5l.663,1.132c.858-.21,5.563-1.8,5.563-1.8A6.941,6.941,0,0,1,324.45,256.193Z" transform="translate(-294.938 -255.858)" fill="#f0b87d"/>
          <path id="Path_94" data-name="Path 94" d="M326.683,276.234c-.247,1.646-1.726,2.648-3.712,3.264-.335.115-.7.2-1.064.289-3.58.829-8.228.694-10.5.795-.274.007-.543.02-.809.027-.2.007-.381.015-.57.015-6.683.139-9.424-1.137-11.17-4.671a26.71,26.71,0,0,1-1.614-4.683c-1.465-5.519-.513-10.187,1.58-12.129a3.435,3.435,0,0,1,4.1-.555v.007c.039.655.081,1.264.134,1.834,1,10.476,5.424,7.285,15.86,5.01a26.619,26.619,0,0,1,.829,2.641.375.375,0,0,1-.066.1c-.751.976-3.052,3.45-3.2,3.6a14.09,14.09,0,0,1,4.536-1.184,1.718,1.718,0,0,1,.193-.007h.007a4.509,4.509,0,0,1,.655.007h.007a4.783,4.783,0,0,1,2.969,1.044l.007,0a4.087,4.087,0,0,1,.724.778A7.032,7.032,0,0,1,326.683,276.234Z" transform="translate(-296.535 -252.542)" fill="#3c3c3b"/>
          <path id="Path_95" data-name="Path 95" d="M307.592,267.173c2-.54,3.856-2.856,3.5-4.164s-1.939-.726-3.947-.205c-1.328.345-3.3.518-3.33,2.069C303.789,266.229,304.655,267.968,307.592,267.173Z" transform="translate(-286.012 -246.675)" fill="#f0b87d"/>
        </g>
        <path id="Path_96" data-name="Path 96" d="M311.5,255.995a3.34,3.34,0,0,1,2.333,2.4l.631,2.78a8.226,8.226,0,0,1-.249,3.184l0,.01a9.091,9.091,0,0,1-3.436,2.4,27.428,27.428,0,0,1-4.179,1.281,6.756,6.756,0,0,0,3.015-2.36,11.86,11.86,0,0,0,1.717-3.46,11.362,11.362,0,0,0,.658-3.79A6.718,6.718,0,0,0,311.5,255.995Z" transform="translate(-281.99 -255.661)" fill="#050504" opacity="0.1"/>
      </g>
      <path id="Path_97" data-name="Path 97" d="M382.482,278.2c-.467,1.572-1,3.157-1.572,4.744-.039.112-.081.227-.12.347-.315.849-.636,1.707-.971,2.548h-.768c-2.983-.02-11.867.02-22.223.081-.69.007-1.379.007-2.074.012-3.257.027-6.636.049-9.987.076-1.213,0-2.423.012-3.619.024-13.031.1-19.734,1.34-26.578-2.34l-.007-.007a20.569,20.569,0,0,1-1.812-1.076l-.462-.142-2.868-.895h-.007c.213-.851.408-1.707.594-2.57l.262-1.284v-.007c.736-3.692,1.276-7.3,1.946-10.148.127-.528.254-1.037.394-1.5v-.007c.049-.166.1-.313.142-.467.435-.9,2.9-2.228,2.9-2.228a27.7,27.7,0,0,1,9.1-5.319,38.553,38.553,0,0,1,10.309-2.308c.682-.066,1.384-.108,2.108-.135,1.45-.059,2.983-.046,4.587.042,7.485-1.692,31.676-2.482,42.565,3.692.22.12.428.247.636.374.007.073.02.147.027.22C385.6,265.235,384.5,271.61,382.482,278.2Z" transform="translate(-277.921 -254.427)" fill="#e94e1b"/>
      <path id="Path_98" data-name="Path 98" d="M353.672,264.808l-1.435,9.324-.342,2.23-.032.2-1.13-.012h-.017l-10.882-.1-18.112-.171c-5.583-.983-7.7-3.707-8.475-5.984a7.669,7.669,0,0,1-.355-3.507c1.252-5.861,8.275-6.174,12.158-5.482,6.954,1.225,25.409,3.169,28.248,3.467h.012c.142.012.24.024.3.029A.184.184,0,0,1,353.672,264.808Z" transform="translate(-272.99 -244.868)" fill="#cc4418"/>
      <path id="Path_99" data-name="Path 99" d="M393.906,258.926l-1.264,16.244-.465,5.991c-.445,0-.88.017-1.318.024-9.608.2-17.709.646-26.791.024a121.07,121.07,0,0,1-13.195-1.631q-2.036-.356-4.191-.807l-.061-.445-.4-3.03-2.186-16.371c4.536-.477,8.744-.787,12.664-.976C372.857,257.18,384.147,258.5,393.906,258.926Z" transform="translate(-227.885 -249.678)" fill="#006080"/>
      <path id="Path_100" data-name="Path 100" d="M416.148,263.938l-1.46,12.9-.34,3.037-.073.621h-.2c-24.83.183-34.855.374-50.892,0l.007-.029L364,274.5l2.23-16.288a382.616,382.616,0,0,0,47.4,5.6Z" transform="translate(-200.213 -248.962)" fill="#006080"/>
      <path id="Path_101" data-name="Path 101" d="M355.88,264.979c-.13-.971-1.264-.951-1.91-.748-1.137.357-3.128.648-5.3,1.034-.472.191-.919.257-1.4.428a9.875,9.875,0,0,0-1.316.543c-.333.413-.548.751-.919,1.3a26.872,26.872,0,0,0,8.539-.954C354.241,266.311,356,265.847,355.88,264.979Z" transform="translate(-226.438 -240.421)" fill="#ffc990"/>
      <path id="Path_102" data-name="Path 102" d="M365.111,270.778v.012a.74.74,0,0,1-.648.734.952.952,0,0,1-.122,0L353.66,271.5h-9.9v-.012l.22-3.157.171-2.467c0,.073.166.091.452.073a20.073,20.073,0,0,0,2.01-.325c2.057-.4,4.847-1.044,6.05-1.176a1.9,1.9,0,0,1,.289-.02,2.456,2.456,0,0,1,.885.171l1.971.768.831.325,2.687,1.044a2.567,2.567,0,0,1,.513.269l3.137,2.015,1.79,1.147A.743.743,0,0,1,365.111,270.778Z" transform="translate(-228.28 -239.992)" fill="#ffc990"/>
      <path id="Path_103" data-name="Path 103" d="M345.284,275.935c-.293,1.631-.587,3.1-.856,4.282-.159.69-.31,1.281-.452,1.741-.213.707-.4,1.11-.543,1.11h-5.558c.012-.042.032-.086.044-.127.3-.824.575-1.66.829-2.516.1-.3.191-.6.269-.9.428-1.435.8-2.907,1.142-4.409,1.32-5.742,2.137-11.9,2.964-18.117l.071-.57,4.216.313c.091.012.152.2.181.543C347.786,259.637,346.522,269.151,345.284,275.935Z" transform="translate(-236.787 -251.531)" fill="#cc4418"/>
      <path id="Path_104" data-name="Path 104" d="M367.84,268.331l-.032.276-.257,2.374-.347,3.164v.024l-.007.029H335.474a33.879,33.879,0,0,1-6.248.142h-.017c-.215-.02-.433-.044-.66-.073a.48.48,0,0,1-.232-.1c-.4-.276-.6-1.142-.609-2.279-.049-3.414,1.543-9.3,4.084-9.324h.012c.142.012.24.024.3.029a.184.184,0,0,1,.061.007l20.5,3.291,2.186.354,1.191.188,3.935.628Z" transform="translate(-251.483 -242.663)" fill="#cc4418"/>
    </g>
    <path id="Path_105" data-name="Path 105" d="M522.395,267.8l-.247,5.331-3.961.1c-1.646.039-3.1.012-4.348-.061a33.973,33.973,0,0,1-4.815.02c-24.832.181-34.86.369-50.894,0l.007-.034c-9.608.2-17.709.65-26.793.027a.6.6,0,0,1-.12.007l-10.683-.034h-9.659l-.007.034h-31.72a34.1,34.1,0,0,1-6.248.142h-.02l-10.877-.1c-1.213,0-2.423.012-3.619.024-13.031.1-19.734,1.34-26.578-2.34l-.007-.007a20.569,20.569,0,0,1-1.812-1.076l-.462-.142-2.868-.895h-.007l-1.345.046c-.247,1.646-1.726,2.648-3.712,3.264-.335.115-.7.2-1.064.289-3.58.829-8.228.694-10.5.795-.274.007-.543.02-.809.027-.2.007-.381.015-.57.015-6.683.139-9.424-1.137-11.17-4.671,1.191.369,2.374.682,3.551.924h.007a25.972,25.972,0,0,0,13.814-.469,20.229,20.229,0,0,0,4.891-1.284,16.839,16.839,0,0,0,1.946-.924l.007,0a7.952,7.952,0,0,0,6.133-3.534c.034,1.36,6.891,3.927,7.585,3.807,10.224,2.541,22.445,3.577,35.97,3.8,1,.015,2.008.027,3.022.034,7.253.054,14.865-.1,22.719-.374.293-.007.594-.015.9-.027.215-.007.428-.015.648-.027,1.372-.046,2.744-.093,4.128-.154q3.994-.161,8.055-.347c.127-.007.247-.007.367-.015.885.127,1.773.235,2.67.328,1.939.215,3.92.354,5.959.435h.007c3.184.12,6.495.1,9.994-.066a258.338,258.338,0,0,0,29.092-3.485c.215-.034.435-.076.658-.108.1.027.205.046.313.066,15.2,3.48,29.373,4.255,45.756,2.775.562-.046,1.122-.093,1.685-.154.756-.066,1.511-.147,2.274-.232,3.538-.389,7.179-.878,10.965-1.453C521.192,267.985,521.793,267.892,522.395,267.8Z" transform="translate(2.5 72.664)" fill="#1d1d1b" opacity="0.1"/>
    <path id="Path_106" data-name="Path 106" d="M323.108,253.278c.13-.973,1.262-.951,1.91-.748,1.135.355,3.128.646,5.3,1.034.47.191.919.254,1.4.425a10.189,10.189,0,0,1,1.313.543c.333.413.55.751.922,1.3a26.862,26.862,0,0,1-8.539-.954C324.747,254.608,322.991,254.143,323.108,253.278Z" transform="translate(39.527 56.981)" fill="#ffc990"/>
    <path id="Path_107" data-name="Path 107" d="M319.647,259.076v.012a.74.74,0,0,0,.648.734.966.966,0,0,0,.122,0l10.784-1.5,4.468.614c3.025,0,6.216-1.707,6.006-4.724l0-.056c0,.073-.164.09-.45.073a19.825,19.825,0,0,1-2.01-.323c-2.059-.4-4.849-1.044-6.052-1.179a2.254,2.254,0,0,0-.286-.02,2.456,2.456,0,0,0-.885.171l-1.973.77-.829.323-2.687,1.044a2.561,2.561,0,0,0-.513.269l-4.2,2.015-1.79,1.149A.736.736,0,0,0,319.647,259.076Z" transform="translate(34.532 57.409)" fill="#ffc990"/>
  </g>
</svg>
