<svg xmlns="http://www.w3.org/2000/svg" width="28.563" height="28.563" viewBox="0 0 28.563 28.563"><defs><style>.a{fill:#fff;}</style></defs><path class="a" d="M14.282,9.088a5.193,5.193,0,1,0,5.193,5.193A5.209,5.209,0,0,0,14.282,9.088Zm11.555,3.9A11.6,11.6,0,0,0,15.58,2.727V0h-2.6V2.727A11.36,11.36,0,0,0,2.727,12.983H0v2.6H2.727A11.6,11.6,0,0,0,12.983,25.837v2.727h2.6V25.837A11.6,11.6,0,0,0,25.837,15.58h2.727v-2.6ZM14.282,23.37a9.088,9.088,0,1,1,9.088-9.088A9.032,9.032,0,0,1,14.282,23.37Z"/></svg>