<svg xmlns="http://www.w3.org/2000/svg" width="24.71" height="35.692" viewBox="0 0 24.71 35.692"><defs><style>.a{fill:#f4f3f4;}</style></defs><g transform="translate(-73.087)"><g transform="translate(73.087)"><path class="a" d="M153.043,24.709a6.882,6.882,0,0,0,6.863-6.863V6.864a6.608,6.608,0,0,0-2.016-4.848,6.835,6.835,0,0,0-9.695,0,6.609,6.609,0,0,0-2.016,4.848V17.846a6.883,6.883,0,0,0,6.864,6.863Z" transform="translate(-140.688)"/><path class="a" d="M97.389,183.132a1.372,1.372,0,0,0-2.338.965v2.746a9.609,9.609,0,0,1-19.219,0V184.1a1.373,1.373,0,0,0-2.746,0v2.746a12.353,12.353,0,0,0,10.982,12.268v2.832H78.578a1.373,1.373,0,0,0,0,2.746H92.305a1.373,1.373,0,0,0,0-2.746h-5.49v-2.832A12.355,12.355,0,0,0,97.8,186.842V184.1A1.319,1.319,0,0,0,97.389,183.132Z" transform="translate(-73.087 -168.996)"/></g></g></svg>